<svg width="200" height="200" viewBox="0 0 200 200" xmlns="http://www.w3.org/2000/svg">
  <!-- Pixel Grid Background -->
  <rect width="200" height="200" fill="#0f0f1b" />
  
  <!-- G Letter -->
  <g fill="#33ff66">
    <!-- G Outline -->
    <rect x="40" y="60" width="10" height="10" />
    <rect x="50" y="60" width="10" height="10" />
    <rect x="60" y="60" width="10" height="10" />
    <rect x="70" y="60" width="10" height="10" />
    <rect x="40" y="70" width="10" height="10" />
    <rect x="40" y="80" width="10" height="10" />
    <rect x="40" y="90" width="10" height="10" />
    <rect x="40" y="100" width="10" height="10" />
    <rect x="40" y="110" width="10" height="10" />
    <rect x="40" y="120" width="10" height="10" />
    <rect x="50" y="120" width="10" height="10" />
    <rect x="60" y="120" width="10" height="10" />
    <rect x="70" y="120" width="10" height="10" />
    <rect x="70" y="110" width="10" height="10" />
    <rect x="70" y="100" width="10" height="10" />
    <rect x="60" y="100" width="10" height="10" />
  </g>
  
  <!-- O Letter -->
  <g fill="#ffcc00">
    <rect x="90" y="60" width="10" height="10" />
    <rect x="100" y="60" width="10" height="10" />
    <rect x="110" y="60" width="10" height="10" />
    <rect x="90" y="70" width="10" height="10" />
    <rect x="90" y="80" width="10" height="10" />
    <rect x="90" y="90" width="10" height="10" />
    <rect x="90" y="100" width="10" height="10" />
    <rect x="90" y="110" width="10" height="10" />
    <rect x="100" y="120" width="10" height="10" />
    <rect x="110" y="120" width="10" height="10" />
    <rect x="120" y="110" width="10" height="10" />
    <rect x="120" y="100" width="10" height="10" />
    <rect x="120" y="90" width="10" height="10" />
    <rect x="120" y="80" width="10" height="10" />
    <rect x="120" y="70" width="10" height="10" />
  </g>
  
  <!-- Exclamation Mark -->
  <g fill="#ff5566">
    <rect x="140" y="60" width="10" height="10" />
    <rect x="140" y="70" width="10" height="10" />
    <rect x="140" y="80" width="10" height="10" />
    <rect x="140" y="90" width="10" height="10" />
    <rect x="140" y="100" width="10" height="10" />
    <rect x="140" y="120" width="10" height="10" />
  </g>
  
  <!-- Pixel Character -->
  <g id="pixel-character">
    <!-- Body -->
    <rect x="160" y="140" width="10" height="10" fill="#33ff66" />
    <rect x="160" y="150" width="10" height="10" fill="#33ff66" />
    <rect x="160" y="160" width="10" height="10" fill="#33ff66" />
    
    <!-- Head -->
    <rect x="160" y="130" width="10" height="10" fill="#ffcc00" />
    
    <!-- Arms -->
    <rect x="150" y="150" width="10" height="10" fill="#33ff66" class="arm-left" />
    <rect x="170" y="150" width="10" height="10" fill="#33ff66" class="arm-right" />
    
    <!-- Legs -->
    <rect x="150" y="170" width="10" height="10" fill="#33ff66" class="leg-left" />
    <rect x="170" y="170" width="10" height="10" fill="#33ff66" class="leg-right" />
  </g>
  
  <!-- Animated Cursor -->
  <rect x="180" y="180" width="10" height="10" fill="#ffffff" class="blink" />
</svg> 